General
      Complete name : The.Army.Of.Crime.2009.BRRip.H264.AAC.5.1ch.Gopo.mp4
      Format : MPEG-4
      Format profile : Base Media
      Codec ID : isom
      File size : 2.23 GiB
      Duration : 2h 18mn
      Overall bit rate : 2 311 Kbps
      Encoded date : UTC 2010-02-05 17:27:10
      Tagged date : UTC 2010-02-05 17:27:10
   Video #1
      ID : 1
      Format : AVC
      Format/Info : Advanced Video Codec
      Format profile : High@L4.1
      Format settings, CABAC : Yes
      Format settings, ReFrames : 5 frames
      Codec ID : avc1
      Codec ID/Info : Advanced Video Coding
      Duration : 2h 18mn
      Bit rate mode : Variable
      Bit rate : 1 994 Kbps
      Maximum bit rate : 14.2 Mbps
      Width : 1 280 pixels
      Height : 688 pixels
      Display aspect ratio : 1.860
      Frame rate mode : Constant
      Frame rate : 24.000 fps
      Resolution : 24 bits
      Colorimetry : 4:2:0
      Scan type : Progressive
      Bits/(Pixel*Frame) : 0.094
      Stream size : 1.92 GiB (86%)
      Writing library : x264 core 84 r1416 fcf70c2
      Encoding settings : cabac=1 / ref=5 / deblock=1:0:0 / analyse=0x3:0x113 / me=hex / subme=7 / psy=1 / psy_rd=1.0:0.0 / mixed_ref=1 / me_range=16 / chroma_me=1 / trellis=0 / 8x8dct=1 / cqm=0 / deadzone=21,11 / fast_pskip=1 / chroma_qp_offset=-2 / threads=1 / sliced_threads=0 / nr=0 / decimate=1 / mbaff=0 / constrained_intra=0 / bframes=3 / b_pyramid=0 / b_adapt=1 / b_bias=0 / direct=1 / wpredb=1 / wpredp=2 / keyint=250 / keyint_min=25 / scenecut=40 / intra_refresh=0 / rc_lookahead=40 / rc=2pass / mbtree=1 / bitrate=1994 / ratetol=1.0 / qcomp=0.60 / qpmin=10 / qpmax=51 / qpstep=4 / cplxblur=20.0 / qblur=0.5 / vbv_maxrate=31250 / vbv_bufsize=31250 / ip_ratio=1.40 / aq=1:1.00
      Encoded date : UTC 2010-02-04 19:45:28
      Tagged date : UTC 2010-02-05 17:30:30
   Audio #2
      ID : 2
      Format : AAC
      Format/Info : Advanced Audio Codec
      Format version : Version 4
      Format profile : LC
      Format settings, SBR : No
      Codec ID : 40
      Duration : 2h 18mn
      Bit rate mode : Variable
      Bit rate : 322 Kbps
      Maximum bit rate : 461 Kbps
      Channel(s) : 6 channels
      Channel positions : Front: L C R, Rear: L R, LFE
      Sampling rate : 48.0 KHz
      Resolution : 16 bits
      Stream size : 319 MiB (14%)
      Encoded date : UTC 2010-02-05 17:30:08
      Tagged date : UTC 2010-02-05 17:30:30	
	Sample : YES
	Subtitle : English,Romanian

PLOT
The poet Missak Manouchian leads a mixed bag of youngsters and immigrants in a clandestine battle against the Nazi occupation. Twenty-two men and one woman fighting for an ideal and for freedom. News of their daring attacks, including the assassination of an SS general, eventually reaches Berlin.
Director: Robert Guédiguian
CASTING 
     
      Simon Abkarian	... 	Missak Manouchian
	Virginie Ledoyen	... 	Mélinée Manouchian
	Robinson Stévenin	... 	Marcel Rayman
	Grégoire Leprince-Ringuet	... 	Thomas Elek
	Lola Naymark	... 	Monique
	Yann Trégouët	... 	Le Commissaire David
	Ariane Ascaride	... 	Madame Elek
	Jean-Pierre Darroussin	... 	Inspecteur Pujol
	Ivan Franek	... 	Feri Boczov
	Adrien Jolivet	... 	Henri Krasucki
	Horatiu Malaele	... 	Monsieur Dupont
	Mirza Halilovic	... 	Petra
	Olga Legrand	... 	Olga Bancic
	Esteban Carvajal-Alegria	... 	Narek Tavkorian
	Léopold Szabatura	... 	Simon Rayman

SOURCE: The.Army.Of.Crime.2009.720p.BluRay.x264-CiNEFiLE.mkv

Notes: For best performance I suggest you to use KMPlayer(find it with google) for playback
I haven't tested the movies on a PS3 or Xbox or other devices than PC because I don't own one of them but feel free to test them if you have the oportunity.
